IKResults
version=1
nRows=17
nColumns=40
inDegrees=yes

Units are S.I. units (second, meters, Newtons, ...)
Angles are in degrees.

endheader
time	pelvis_tilt	pelvis_list	pelvis_rotation	pelvis_tx	pelvis_ty	pelvis_tz	hip_flexion_r	hip_adduction_r	hip_rotation_r	knee_angle_r	knee_angle_r_beta	ankle_angle_r	subtalar_angle_r	mtp_angle_r	hip_flexion_l	hip_adduction_l	hip_rotation_l	knee_angle_l	knee_angle_l_beta	ankle_angle_l	subtalar_angle_l	mtp_angle_l	lumbar_extension	lumbar_bending	lumbar_rotation	arm_flex_r	arm_add_r	arm_rot_r	elbow_flex_r	pro_sup_r	wrist_flex_r	wrist_dev_r	arm_flex_l	arm_add_l	arm_rot_l	elbow_flex_l	pro_sup_l	wrist_flex_l	wrist_dev_l
      0.43000000	     16.59726905	     -1.79861238	      1.60524990	     -0.29130817	      0.95531219	     -0.99991573	    -13.54366502	      3.82572809	    -15.06475870	    -15.15068443	     -0.26442933	      7.83725848	      0.59034035	     -2.82671001	     -3.15182008	      4.85242920	      4.30704138	    -50.55090768	     -0.88227978	      8.86323639	     17.80049728	     11.06375914	    -24.88708387	      2.26532298	     -2.18292320	      3.58599528	    -13.22787358	      1.92230107	     33.00635935	     89.95437384	      0.00000000	      0.00000000	      4.48000660	      6.91046750	     19.63617894	     22.82524238	     89.95437384	      0.00000000	      0.00000000
      0.44000000	     16.47618942	     -1.69271938	      1.49638403	     -0.28259023	      0.95497963	     -0.99923296	    -14.08526738	      3.75796617	    -14.94494172	    -15.01896446	     -0.26213038	      8.26155649	      0.68191580	     -2.89963375	     -2.07662074	      4.74005496	      4.58690792	    -49.36091087	     -0.86151042	      9.33392509	     17.69170831	     10.88337413	    -24.83659050	      2.05337604	     -2.09612096	      4.56298579	    -13.42998122	      1.94420997	     33.65580893	     89.95437384	      0.00000000	      0.00000000	      3.99816972	      6.95850402	     19.45822724	     21.03503601	     89.95437384	      0.00000000	      0.00000000
      0.45000000	     16.21630255	     -1.63862428	      1.49091320	     -0.27404903	      0.95425458	     -0.99851971	    -14.30462097	      3.74364930	    -14.97813154	    -15.16139297	     -0.26461623	      8.43720873	      0.61850157	     -2.89726046	     -0.76675001	      4.82754369	      5.05908929	    -48.20366264	     -0.84131262	      9.50405022	     17.50350026	     10.72131217	    -24.70499093	      1.91541244	     -2.25156809	      5.50234207	    -13.54971791	      1.85520544	     34.54539317	     89.95437384	      0.00000000	      0.00000000	      3.09863354	      7.05058916	     19.30581397	     20.06400872	     89.95437384	      0.00000000	      0.00000000
      0.46000000	     16.35869076	     -1.33133363	      1.10797475	     -0.26505891	      0.95422959	     -0.99782513	    -15.18192007	      3.42322952	    -14.33084391	    -14.95564704	     -0.26102528	      8.93457911	      0.63377873	     -3.00217630	     -0.34301002	      4.35641738	      5.42565760	    -46.39382683	     -0.80972503	     10.18262444	     17.32278225	     10.47887257	    -24.87807279	      1.43053497	     -1.78106461	      6.20876840	    -13.94508795	      1.92533669	     35.43042975	     89.95437384	      0.00000000	      0.00000000	      3.10644123	      7.06868355	     19.06133000	     17.60345405	     89.95437384	      0.00000000	      0.00000000
      0.47000000	     16.51956206	     -1.01837722	      0.67490720	     -0.25597801	      0.95406027	     -0.99687665	    -16.01762054	      3.07096459	    -13.92160776	    -14.80993144	     -0.25848207	      9.26379103	      0.38311710	     -3.07964974	      0.00528043	      4.07324096	      6.29140547	    -44.41727719	     -0.77522773	     10.31711125	     17.10636995	     10.06884746	    -25.12458577	      0.88915762	     -1.42717769	      6.92748655	    -14.14830862	      1.68459003	     36.40908729	     89.95437384	      0.00000000	      0.00000000	      2.44261774	      7.12425240	     18.67741020	     16.46299062	     89.95437384	      0.00000000	      0.00000000
      0.48000000	     16.45613513	     -0.84448145	      0.64947879	     -0.24677759	      0.95333878	     -0.99647349	    -16.62068312	      2.97394789	    -13.69080944	    -14.72644697	     -0.25702499	      9.68896155	      0.14776842	     -3.12849514	      0.72938853	      3.87876292	      6.57417354	    -42.57959843	     -0.74315419	     10.43684252	     16.79762238	      9.69847646	    -25.08425681	      0.64637017	     -1.48221503	      7.72026545	    -14.34540949	      1.65255626	     37.15022944	     89.95437384	      0.00000000	      0.00000000	      1.59360518	      7.18626964	     18.23164439	     15.60417134	     89.95437384	      0.00000000	      0.00000000
      0.49000000	     16.10202788	     -0.87063688	      0.80376773	     -0.23797750	      0.95201025	     -0.99617716	    -16.74949928	      3.10061966	    -13.78240885	    -14.87804379	     -0.25967085	      9.91528374	     -0.00695466	     -3.11930992	      1.99720444	      4.03872291	      7.06458955	    -41.05431818	     -0.71653302	     10.40445629	     16.51921294	      9.54834923	    -24.78756938	      0.66963497	     -1.65304580	      8.52269649	    -14.50084328	      1.52825623	     37.93003361	     89.95437384	      0.00000000	      0.00000000	      0.65507997	      7.18685861	     18.02241840	     15.14713492	     89.95437384	      0.00000000	      0.00000000
      0.50000000	     16.56629889	     -0.32394755	      0.37689702	     -0.22815500	      0.95211568	     -0.99569746	    -18.09403226	      2.51464103	    -13.10127710	    -14.53690667	     -0.25371688	     10.32010490	     -0.60078419	     -3.12153661	      1.54691089	      3.31786913	      7.68636071	    -38.22752387	     -0.66719616	     10.01278522	     15.82468668	      8.66852269	    -25.25152981	     -0.06875566	     -1.36133333	      9.12241825	    -14.73004070	      1.31484813	     38.79528426	     89.95437384	      0.00000000	      0.00000000	     -0.26072674	      7.25080161	     16.98126412	     14.63888381	     89.95437384	      0.00000000	      0.00000000
      0.51000000	     16.51360053	     -0.34237759	      0.36792041	     -0.21885766	      0.95118419	     -0.99513962	    -18.85704055	      2.77250479	    -12.06203360	    -14.13087106	     -0.24663023	     10.38764104	     -2.06254357	     -2.68783168	      2.08683020	      3.49293381	      8.39211180	    -35.98880086	     -0.62812307	      9.39497271	     15.20225054	      2.02728312	    -25.21078746	     -0.12248083	     -1.24920215	      9.76177436	    -14.91237105	      1.10034313	     39.53775949	     89.95437384	      0.00000000	      0.00000000	     -1.29749437	      7.33720305	     15.70379244	     14.50287731	     89.95437384	      0.00000000	      0.00000000
      0.52000000	     16.04022863	     -0.40137364	      0.68074983	     -0.20978504	      0.94938778	     -0.99513346	    -18.86585000	      2.96521224	    -12.22202343	    -14.31007274	     -0.24975789	     10.64233904	     -2.15936817	     -2.67796085	      3.39166964	      3.66034000	      8.94778783	    -34.26325166	     -0.59800655	      9.36811429	     14.72141377	      2.00599821	    -24.75388804	     -0.01698714	     -1.53168275	     10.42066701	    -15.03155398	      0.95877274	     40.26619056	     89.95437384	      0.00000000	      0.00000000	     -2.28233806	      7.31887693	     15.48099622	     14.20388289	     89.95437384	      0.00000000	      0.00000000
      0.53000000	     15.98604359	      0.03812532	      0.53062967	     -0.20027965	      0.94836441	     -0.99507021	    -19.37724789	      2.48293894	    -11.92561550	    -14.53636317	     -0.25370740	     11.31889618	     -2.46816856	     -2.63525102	      3.53491593	      3.05612495	      9.35961232	    -31.39316563	     -0.54791410	      8.81973998	     12.62838102	      1.66709695	    -24.68361344	     -0.54745823	     -1.48683417	     11.04287238	    -15.13463977	      0.66302149	     40.84046126	     89.95437384	      0.00000000	      0.00000000	     -3.30112361	      7.35438183	     14.43546661	     14.13339098	     89.95437384	      0.00000000	      0.00000000
      0.54000000	     16.19697069	      0.32179728	      0.28440449	     -0.19016063	      0.94756286	     -0.99475332	    -20.35208884	      2.14678969	    -11.69152514	    -14.39817562	     -0.25129557	     11.50826775	     -2.60523049	     -2.48991177	      3.38423885	      2.83682613	     10.75137819	    -28.68797332	     -0.50069959	      8.23256731	     10.87342484	      1.08512733	    -24.82820648	     -0.95968851	     -1.22043700	     11.40442568	    -15.32544904	      0.37010651	     41.68035926	     89.95437384	      0.00000000	      0.00000000	     -4.46380104	      7.41818419	     13.04433609	     14.37636942	     89.95437384	      0.00000000	      0.00000000
      0.55000000	     16.15014560	      0.47771082	      0.24966982	     -0.18017599	      0.94623656	     -0.99463730	    -20.98897654	      2.01796669	    -11.49251517	    -14.39905225	     -0.25131087	     11.85658996	     -2.85180545	     -2.33691896	      3.60500630	      2.74642826	     11.99940305	    -26.12577611	     -0.45598081	      7.67100904	      8.79009034	      0.31617519	    -24.71259674	     -1.16743353	     -1.11780389	     11.79191120	    -15.44113700	      0.00432655	     42.42308378	     89.95437384	      0.00000000	      0.00000000	     -5.54849296	      7.47316988	     12.00880721	     14.50296107	     89.95437384	      0.00000000	      0.00000000
      0.56000000	     16.05089775	      0.59822442	      0.19184619	     -0.17022404	      0.94474939	     -0.99462863	    -21.52423481	      1.90760237	    -11.21633586	    -14.48516913	     -0.25281389	     12.26980556	     -3.07998829	     -2.21088360	      3.89848240	      2.67630782	     13.40848538	    -23.71235975	     -0.41385875	      7.19688378	      6.61397474	     -0.50866793	    -24.54513763	     -1.33756767	     -0.96372912	     12.15503012	    -15.55487671	     -0.44563710	     43.10755257	     89.95437384	      0.00000000	      0.00000000	     -6.52756021	      7.44175552	     11.55124917	     14.61124827	     89.95437384	      0.00000000	      0.00000000
      0.57000000	     16.00597857	      0.76163535	      0.04135863	     -0.16006708	      0.94323698	     -0.99462315	    -22.12851500	      1.70297377	    -10.97184045	    -14.57843978	     -0.25444177	     12.70248194	     -3.34424614	     -2.07438421	      4.06189077	      2.55573033	     15.12858632	    -21.34671993	     -0.37257055	      6.65364293	      4.19531928	     -1.35353925	    -24.42317321	     -1.58354928	     -0.75008780	     12.44330253	    -15.71810620	     -0.70392317	     43.80829617	     89.95437384	      0.00000000	      0.00000000	     -7.43059714	      7.38970152	     11.31251570	     14.65726672	     89.95437384	      0.00000000	      0.00000000
      0.58000000	     15.97262369	      0.94048102	     -0.14544047	     -0.14992615	      0.94165044	     -0.99470815	    -22.66006660	      1.42773278	    -10.76450612	    -14.84756318	     -0.25913886	     13.21025973	     -3.50234898	     -1.99050989	      4.25190741	      2.39707068	     17.02064420	    -19.20666984	     -0.33521963	      6.07155654	      1.81754271	     -2.10023094	    -24.32523563	     -1.84248781	     -0.47955584	     12.70516969	    -15.86912069	     -1.12467093	     44.48841625	     89.95437384	      0.00000000	      0.00000000	     -8.29035909	      7.28310504	     11.51698765	     14.72884322	     89.95437384	      0.00000000	      0.00000000
      0.59000000	     15.64933082	      0.80804067	      0.22655036	     -0.14015884	      0.93944817	     -0.99539164	    -22.90200553	      1.68832934	    -10.94263235	    -15.03565026	     -0.26242160	     13.44589389	     -3.57050187	     -1.99970378	      5.29104841	      2.50156125	     17.87527483	    -18.17764650	     -0.31725978	      6.26518372	      1.76070653	     -2.09319342	    -23.95167012	     -1.57374836	     -0.72580723	     13.08336809	    -15.96545091	     -1.28248269	     45.00052837	     89.95437384	      0.00000000	      0.00000000	     -9.00729995	      7.19521803	     11.50488269	     14.51172740	     89.95437384	      0.00000000	      0.00000000
